<mxfile host="app.diagrams.net" modified="2021-11-15T05:56:07.674Z" agent="5.0 (Windows NT 10.0; Win64; x64) AppleWebKit/537.36 (KHTML, like Gecko) Chrome/95.0.4638.69 Safari/537.36 Edg/95.0.1020.44" etag="ySesrw1Uwflf976sAPN5" version="15.7.3" type="github">
  <diagram id="vX4oiLB-1WKWtIgB-3DV" name="Page-1">
    <mxGraphModel dx="1221" dy="672" grid="1" gridSize="10" guides="1" tooltips="1" connect="1" arrows="1" fold="1" page="1" pageScale="1" pageWidth="827" pageHeight="1169" math="0" shadow="0">
      <root>
        <mxCell id="0" />
        <mxCell id="1" parent="0" />
        <mxCell id="RGCuev2vocKH3xydTviM-1" value="Hệ thống quản lý bán sách Fahasa" style="rounded=1;whiteSpace=wrap;html=1;" vertex="1" parent="1">
          <mxGeometry x="414" y="50" width="120" height="60" as="geometry" />
        </mxCell>
        <mxCell id="RGCuev2vocKH3xydTviM-5" value="1. Quản lý hệ thóng" style="rounded=0;whiteSpace=wrap;html=1;" vertex="1" parent="1">
          <mxGeometry x="110" y="260" width="120" height="60" as="geometry" />
        </mxCell>
        <mxCell id="RGCuev2vocKH3xydTviM-6" value="Quản lý tài khoản" style="rounded=0;whiteSpace=wrap;html=1;" vertex="1" parent="1">
          <mxGeometry x="110" y="400" width="110" height="50" as="geometry" />
        </mxCell>
        <mxCell id="RGCuev2vocKH3xydTviM-8" value="Đăng xuất" style="rounded=0;whiteSpace=wrap;html=1;" vertex="1" parent="1">
          <mxGeometry x="110" y="710" width="110" height="50" as="geometry" />
        </mxCell>
        <mxCell id="RGCuev2vocKH3xydTviM-9" value="Đổi mật khẩu" style="rounded=0;whiteSpace=wrap;html=1;" vertex="1" parent="1">
          <mxGeometry x="110" y="610" width="110" height="50" as="geometry" />
        </mxCell>
        <mxCell id="RGCuev2vocKH3xydTviM-10" value="Xem thông tin tài khoản" style="rounded=0;whiteSpace=wrap;html=1;" vertex="1" parent="1">
          <mxGeometry x="110" y="500" width="110" height="50" as="geometry" />
        </mxCell>
        <mxCell id="RGCuev2vocKH3xydTviM-38" value="" style="edgeStyle=segmentEdgeStyle;endArrow=classic;html=1;rounded=0;exitX=0;exitY=0.5;exitDx=0;exitDy=0;entryX=0;entryY=0.5;entryDx=0;entryDy=0;" edge="1" parent="1" source="RGCuev2vocKH3xydTviM-5" target="RGCuev2vocKH3xydTviM-6">
          <mxGeometry width="50" height="50" relative="1" as="geometry">
            <mxPoint x="10" y="370" as="sourcePoint" />
            <mxPoint x="60" y="320" as="targetPoint" />
            <Array as="points">
              <mxPoint x="80" y="290" />
              <mxPoint x="80" y="425" />
            </Array>
          </mxGeometry>
        </mxCell>
        <mxCell id="RGCuev2vocKH3xydTviM-39" value="" style="edgeStyle=segmentEdgeStyle;endArrow=classic;html=1;rounded=0;exitX=0;exitY=0.5;exitDx=0;exitDy=0;entryX=0;entryY=0.5;entryDx=0;entryDy=0;" edge="1" parent="1" source="RGCuev2vocKH3xydTviM-6" target="RGCuev2vocKH3xydTviM-10">
          <mxGeometry width="50" height="50" relative="1" as="geometry">
            <mxPoint x="70" y="430" as="sourcePoint" />
            <mxPoint x="70" y="565" as="targetPoint" />
            <Array as="points">
              <mxPoint x="80" y="425" />
              <mxPoint x="80" y="525" />
            </Array>
          </mxGeometry>
        </mxCell>
        <mxCell id="RGCuev2vocKH3xydTviM-40" value="" style="edgeStyle=segmentEdgeStyle;endArrow=classic;html=1;rounded=0;exitX=0;exitY=0.5;exitDx=0;exitDy=0;entryX=0;entryY=0.5;entryDx=0;entryDy=0;" edge="1" parent="1" source="RGCuev2vocKH3xydTviM-10" target="RGCuev2vocKH3xydTviM-9">
          <mxGeometry width="50" height="50" relative="1" as="geometry">
            <mxPoint x="100" y="530" as="sourcePoint" />
            <mxPoint x="80" y="670" as="targetPoint" />
            <Array as="points">
              <mxPoint x="80" y="525" />
              <mxPoint x="80" y="635" />
            </Array>
          </mxGeometry>
        </mxCell>
        <mxCell id="RGCuev2vocKH3xydTviM-41" value="" style="edgeStyle=segmentEdgeStyle;endArrow=classic;html=1;rounded=0;exitX=0;exitY=0.5;exitDx=0;exitDy=0;entryX=0;entryY=0.5;entryDx=0;entryDy=0;" edge="1" parent="1" source="RGCuev2vocKH3xydTviM-9" target="RGCuev2vocKH3xydTviM-8">
          <mxGeometry width="50" height="50" relative="1" as="geometry">
            <mxPoint x="90" y="640" as="sourcePoint" />
            <mxPoint x="90" y="750" as="targetPoint" />
            <Array as="points">
              <mxPoint x="80" y="635" />
              <mxPoint x="80" y="735" />
            </Array>
          </mxGeometry>
        </mxCell>
        <mxCell id="RGCuev2vocKH3xydTviM-42" value="2. Quản lý danh mục" style="rounded=0;whiteSpace=wrap;html=1;" vertex="1" parent="1">
          <mxGeometry x="340" y="260" width="120" height="60" as="geometry" />
        </mxCell>
        <mxCell id="RGCuev2vocKH3xydTviM-43" value="Quản lý sách" style="rounded=0;whiteSpace=wrap;html=1;" vertex="1" parent="1">
          <mxGeometry x="340" y="400" width="110" height="50" as="geometry" />
        </mxCell>
        <mxCell id="RGCuev2vocKH3xydTviM-45" value="Quản lý nhà cung cấp" style="rounded=0;whiteSpace=wrap;html=1;" vertex="1" parent="1">
          <mxGeometry x="340" y="610" width="110" height="50" as="geometry" />
        </mxCell>
        <mxCell id="RGCuev2vocKH3xydTviM-46" value="Quản lý nhân viên" style="rounded=0;whiteSpace=wrap;html=1;" vertex="1" parent="1">
          <mxGeometry x="340" y="500" width="110" height="50" as="geometry" />
        </mxCell>
        <mxCell id="RGCuev2vocKH3xydTviM-47" value="" style="edgeStyle=segmentEdgeStyle;endArrow=classic;html=1;rounded=0;exitX=0;exitY=0.5;exitDx=0;exitDy=0;entryX=0;entryY=0.5;entryDx=0;entryDy=0;" edge="1" parent="1" source="RGCuev2vocKH3xydTviM-42" target="RGCuev2vocKH3xydTviM-43">
          <mxGeometry width="50" height="50" relative="1" as="geometry">
            <mxPoint x="240" y="370" as="sourcePoint" />
            <mxPoint x="290" y="320" as="targetPoint" />
            <Array as="points">
              <mxPoint x="310" y="290" />
              <mxPoint x="310" y="425" />
            </Array>
          </mxGeometry>
        </mxCell>
        <mxCell id="RGCuev2vocKH3xydTviM-48" value="" style="edgeStyle=segmentEdgeStyle;endArrow=classic;html=1;rounded=0;exitX=0;exitY=0.5;exitDx=0;exitDy=0;entryX=0;entryY=0.5;entryDx=0;entryDy=0;" edge="1" parent="1" source="RGCuev2vocKH3xydTviM-43" target="RGCuev2vocKH3xydTviM-46">
          <mxGeometry width="50" height="50" relative="1" as="geometry">
            <mxPoint x="300" y="430" as="sourcePoint" />
            <mxPoint x="300" y="565" as="targetPoint" />
            <Array as="points">
              <mxPoint x="310" y="425" />
              <mxPoint x="310" y="525" />
            </Array>
          </mxGeometry>
        </mxCell>
        <mxCell id="RGCuev2vocKH3xydTviM-49" value="" style="edgeStyle=segmentEdgeStyle;endArrow=classic;html=1;rounded=0;exitX=0;exitY=0.5;exitDx=0;exitDy=0;entryX=0;entryY=0.5;entryDx=0;entryDy=0;" edge="1" parent="1" source="RGCuev2vocKH3xydTviM-46" target="RGCuev2vocKH3xydTviM-45">
          <mxGeometry width="50" height="50" relative="1" as="geometry">
            <mxPoint x="330" y="530" as="sourcePoint" />
            <mxPoint x="310" y="670" as="targetPoint" />
            <Array as="points">
              <mxPoint x="310" y="525" />
              <mxPoint x="310" y="635" />
            </Array>
          </mxGeometry>
        </mxCell>
        <mxCell id="RGCuev2vocKH3xydTviM-51" value="3. Quản lý bán hàng" style="rounded=0;whiteSpace=wrap;html=1;" vertex="1" parent="1">
          <mxGeometry x="550" y="260" width="120" height="60" as="geometry" />
        </mxCell>
        <mxCell id="RGCuev2vocKH3xydTviM-52" value="Thêm hóa đơn" style="rounded=0;whiteSpace=wrap;html=1;" vertex="1" parent="1">
          <mxGeometry x="555" y="400" width="110" height="50" as="geometry" />
        </mxCell>
        <mxCell id="RGCuev2vocKH3xydTviM-54" value="Xóa hóa đơn" style="rounded=0;whiteSpace=wrap;html=1;" vertex="1" parent="1">
          <mxGeometry x="560" y="610" width="110" height="50" as="geometry" />
        </mxCell>
        <mxCell id="RGCuev2vocKH3xydTviM-55" value="Sửa hóa đơn" style="rounded=0;whiteSpace=wrap;html=1;" vertex="1" parent="1">
          <mxGeometry x="555" y="500" width="110" height="50" as="geometry" />
        </mxCell>
        <mxCell id="RGCuev2vocKH3xydTviM-56" value="" style="edgeStyle=segmentEdgeStyle;endArrow=classic;html=1;rounded=0;exitX=0;exitY=0.5;exitDx=0;exitDy=0;entryX=0;entryY=0.5;entryDx=0;entryDy=0;" edge="1" parent="1" source="RGCuev2vocKH3xydTviM-51" target="RGCuev2vocKH3xydTviM-52">
          <mxGeometry width="50" height="50" relative="1" as="geometry">
            <mxPoint x="450" y="370" as="sourcePoint" />
            <mxPoint x="500" y="320" as="targetPoint" />
            <Array as="points">
              <mxPoint x="520" y="290" />
              <mxPoint x="520" y="425" />
            </Array>
          </mxGeometry>
        </mxCell>
        <mxCell id="RGCuev2vocKH3xydTviM-57" value="" style="edgeStyle=segmentEdgeStyle;endArrow=classic;html=1;rounded=0;exitX=0;exitY=0.5;exitDx=0;exitDy=0;entryX=0;entryY=0.5;entryDx=0;entryDy=0;" edge="1" parent="1" source="RGCuev2vocKH3xydTviM-52" target="RGCuev2vocKH3xydTviM-55">
          <mxGeometry width="50" height="50" relative="1" as="geometry">
            <mxPoint x="510" y="430" as="sourcePoint" />
            <mxPoint x="510" y="565" as="targetPoint" />
            <Array as="points">
              <mxPoint x="520" y="425" />
              <mxPoint x="520" y="525" />
            </Array>
          </mxGeometry>
        </mxCell>
        <mxCell id="RGCuev2vocKH3xydTviM-58" value="" style="edgeStyle=segmentEdgeStyle;endArrow=classic;html=1;rounded=0;exitX=0;exitY=0.5;exitDx=0;exitDy=0;entryX=0;entryY=0.5;entryDx=0;entryDy=0;" edge="1" parent="1" source="RGCuev2vocKH3xydTviM-55" target="RGCuev2vocKH3xydTviM-54">
          <mxGeometry width="50" height="50" relative="1" as="geometry">
            <mxPoint x="540" y="530" as="sourcePoint" />
            <mxPoint x="520" y="670" as="targetPoint" />
            <Array as="points">
              <mxPoint x="520" y="525" />
              <mxPoint x="520" y="635" />
            </Array>
          </mxGeometry>
        </mxCell>
        <mxCell id="RGCuev2vocKH3xydTviM-60" value="4. Thống kê báo cáo" style="rounded=0;whiteSpace=wrap;html=1;" vertex="1" parent="1">
          <mxGeometry x="760" y="260" width="120" height="60" as="geometry" />
        </mxCell>
        <mxCell id="RGCuev2vocKH3xydTviM-61" value="Xem chi tiết báo cáo" style="rounded=0;whiteSpace=wrap;html=1;" vertex="1" parent="1">
          <mxGeometry x="760" y="400" width="110" height="50" as="geometry" />
        </mxCell>
        <mxCell id="RGCuev2vocKH3xydTviM-62" value="In báo cáo" style="rounded=0;whiteSpace=wrap;html=1;" vertex="1" parent="1">
          <mxGeometry x="760" y="710" width="110" height="50" as="geometry" />
        </mxCell>
        <mxCell id="RGCuev2vocKH3xydTviM-63" value="Xóa báo cáo" style="rounded=0;whiteSpace=wrap;html=1;" vertex="1" parent="1">
          <mxGeometry x="760" y="610" width="110" height="50" as="geometry" />
        </mxCell>
        <mxCell id="RGCuev2vocKH3xydTviM-64" value="&lt;span&gt;Thêm báo cáo&lt;/span&gt;" style="rounded=0;whiteSpace=wrap;html=1;" vertex="1" parent="1">
          <mxGeometry x="760" y="500" width="110" height="50" as="geometry" />
        </mxCell>
        <mxCell id="RGCuev2vocKH3xydTviM-65" value="" style="edgeStyle=segmentEdgeStyle;endArrow=classic;html=1;rounded=0;exitX=0;exitY=0.5;exitDx=0;exitDy=0;entryX=0;entryY=0.5;entryDx=0;entryDy=0;" edge="1" parent="1" source="RGCuev2vocKH3xydTviM-60" target="RGCuev2vocKH3xydTviM-61">
          <mxGeometry width="50" height="50" relative="1" as="geometry">
            <mxPoint x="660" y="370" as="sourcePoint" />
            <mxPoint x="710" y="320" as="targetPoint" />
            <Array as="points">
              <mxPoint x="730" y="290" />
              <mxPoint x="730" y="425" />
            </Array>
          </mxGeometry>
        </mxCell>
        <mxCell id="RGCuev2vocKH3xydTviM-66" value="" style="edgeStyle=segmentEdgeStyle;endArrow=classic;html=1;rounded=0;exitX=0;exitY=0.5;exitDx=0;exitDy=0;entryX=0;entryY=0.5;entryDx=0;entryDy=0;" edge="1" parent="1" source="RGCuev2vocKH3xydTviM-61" target="RGCuev2vocKH3xydTviM-64">
          <mxGeometry width="50" height="50" relative="1" as="geometry">
            <mxPoint x="720" y="430" as="sourcePoint" />
            <mxPoint x="720" y="565" as="targetPoint" />
            <Array as="points">
              <mxPoint x="730" y="425" />
              <mxPoint x="730" y="525" />
            </Array>
          </mxGeometry>
        </mxCell>
        <mxCell id="RGCuev2vocKH3xydTviM-67" value="" style="edgeStyle=segmentEdgeStyle;endArrow=classic;html=1;rounded=0;exitX=0;exitY=0.5;exitDx=0;exitDy=0;entryX=0;entryY=0.5;entryDx=0;entryDy=0;" edge="1" parent="1" source="RGCuev2vocKH3xydTviM-64" target="RGCuev2vocKH3xydTviM-63">
          <mxGeometry width="50" height="50" relative="1" as="geometry">
            <mxPoint x="750" y="530" as="sourcePoint" />
            <mxPoint x="730" y="670" as="targetPoint" />
            <Array as="points">
              <mxPoint x="730" y="525" />
              <mxPoint x="730" y="635" />
            </Array>
          </mxGeometry>
        </mxCell>
        <mxCell id="RGCuev2vocKH3xydTviM-68" value="" style="edgeStyle=segmentEdgeStyle;endArrow=classic;html=1;rounded=0;exitX=0;exitY=0.5;exitDx=0;exitDy=0;entryX=0;entryY=0.5;entryDx=0;entryDy=0;" edge="1" parent="1" source="RGCuev2vocKH3xydTviM-63" target="RGCuev2vocKH3xydTviM-62">
          <mxGeometry width="50" height="50" relative="1" as="geometry">
            <mxPoint x="740" y="640" as="sourcePoint" />
            <mxPoint x="740" y="750" as="targetPoint" />
            <Array as="points">
              <mxPoint x="730" y="635" />
              <mxPoint x="730" y="735" />
            </Array>
          </mxGeometry>
        </mxCell>
        <mxCell id="RGCuev2vocKH3xydTviM-69" value="" style="edgeStyle=segmentEdgeStyle;endArrow=classic;html=1;rounded=0;exitX=0.5;exitY=1;exitDx=0;exitDy=0;entryX=0.5;entryY=0;entryDx=0;entryDy=0;" edge="1" parent="1" source="RGCuev2vocKH3xydTviM-1" target="RGCuev2vocKH3xydTviM-5">
          <mxGeometry width="50" height="50" relative="1" as="geometry">
            <mxPoint x="290" y="160" as="sourcePoint" />
            <mxPoint x="340" y="110" as="targetPoint" />
            <Array as="points">
              <mxPoint x="474" y="160" />
              <mxPoint x="170" y="160" />
            </Array>
          </mxGeometry>
        </mxCell>
        <mxCell id="RGCuev2vocKH3xydTviM-70" value="" style="edgeStyle=segmentEdgeStyle;endArrow=classic;html=1;rounded=0;exitX=0.5;exitY=1;exitDx=0;exitDy=0;entryX=0.5;entryY=0;entryDx=0;entryDy=0;" edge="1" parent="1" source="RGCuev2vocKH3xydTviM-1" target="RGCuev2vocKH3xydTviM-42">
          <mxGeometry width="50" height="50" relative="1" as="geometry">
            <mxPoint x="480" y="210" as="sourcePoint" />
            <mxPoint x="530" y="160" as="targetPoint" />
            <Array as="points">
              <mxPoint x="474" y="160" />
              <mxPoint x="400" y="160" />
            </Array>
          </mxGeometry>
        </mxCell>
        <mxCell id="RGCuev2vocKH3xydTviM-71" value="" style="edgeStyle=segmentEdgeStyle;endArrow=classic;html=1;rounded=0;exitX=0.5;exitY=1;exitDx=0;exitDy=0;entryX=0.5;entryY=0;entryDx=0;entryDy=0;" edge="1" parent="1" source="RGCuev2vocKH3xydTviM-1" target="RGCuev2vocKH3xydTviM-51">
          <mxGeometry width="50" height="50" relative="1" as="geometry">
            <mxPoint x="484" y="120" as="sourcePoint" />
            <mxPoint x="410" y="270" as="targetPoint" />
            <Array as="points">
              <mxPoint x="474" y="160" />
              <mxPoint x="610" y="160" />
            </Array>
          </mxGeometry>
        </mxCell>
        <mxCell id="RGCuev2vocKH3xydTviM-72" value="" style="edgeStyle=segmentEdgeStyle;endArrow=classic;html=1;rounded=0;exitX=0.5;exitY=1;exitDx=0;exitDy=0;entryX=0.5;entryY=0;entryDx=0;entryDy=0;" edge="1" parent="1" source="RGCuev2vocKH3xydTviM-1" target="RGCuev2vocKH3xydTviM-60">
          <mxGeometry width="50" height="50" relative="1" as="geometry">
            <mxPoint x="484" y="120" as="sourcePoint" />
            <mxPoint x="620" y="270" as="targetPoint" />
            <Array as="points">
              <mxPoint x="474" y="160" />
              <mxPoint x="820" y="160" />
            </Array>
          </mxGeometry>
        </mxCell>
      </root>
    </mxGraphModel>
  </diagram>
</mxfile>
